<mxfile host="app.diagrams.net" agent="Mozilla/5.0 (Windows NT 10.0; Win64; x64) AppleWebKit/537.36 (KHTML, like Gecko) Chrome/133.0.0.0 Safari/537.36" version="26.0.14">
  <diagram name="Página-1" id="LQJI_waylUIZm1cJ5i_8">
    <mxGraphModel grid="1" page="1" gridSize="10" guides="1" tooltips="1" connect="1" arrows="1" fold="1" pageScale="1" pageWidth="827" pageHeight="1169" math="0" shadow="0">
      <root>
        <mxCell id="0" />
        <mxCell id="1" parent="0" />
        <mxCell id="TsiZo-4wIMA7TWHVv7ca-9" style="edgeStyle=orthogonalEdgeStyle;rounded=0;orthogonalLoop=1;jettySize=auto;html=1;entryX=0.5;entryY=0;entryDx=0;entryDy=0;" edge="1" parent="1" source="TsiZo-4wIMA7TWHVv7ca-1" target="TsiZo-4wIMA7TWHVv7ca-3">
          <mxGeometry relative="1" as="geometry" />
        </mxCell>
        <mxCell id="TsiZo-4wIMA7TWHVv7ca-1" value="INICIO" style="rounded=1;whiteSpace=wrap;html=1;arcSize=50;" vertex="1" parent="1">
          <mxGeometry x="360" y="20" width="120" height="60" as="geometry" />
        </mxCell>
        <mxCell id="TsiZo-4wIMA7TWHVv7ca-2" value="FINAL" style="rounded=1;whiteSpace=wrap;html=1;arcSize=50;" vertex="1" parent="1">
          <mxGeometry x="360" y="890" width="120" height="60" as="geometry" />
        </mxCell>
        <mxCell id="TsiZo-4wIMA7TWHVv7ca-8" style="edgeStyle=orthogonalEdgeStyle;rounded=0;orthogonalLoop=1;jettySize=auto;html=1;entryX=0.5;entryY=0;entryDx=0;entryDy=0;" edge="1" parent="1" source="TsiZo-4wIMA7TWHVv7ca-3" target="TsiZo-4wIMA7TWHVv7ca-4">
          <mxGeometry relative="1" as="geometry" />
        </mxCell>
        <mxCell id="TsiZo-4wIMA7TWHVv7ca-3" value="Receba o ano&lt;br&gt;(ano)" style="shape=parallelogram;perimeter=parallelogramPerimeter;whiteSpace=wrap;html=1;fixedSize=1;" vertex="1" parent="1">
          <mxGeometry x="340" y="120" width="160" height="70" as="geometry" />
        </mxCell>
        <mxCell id="TsiZo-4wIMA7TWHVv7ca-11" style="edgeStyle=orthogonalEdgeStyle;rounded=0;orthogonalLoop=1;jettySize=auto;html=1;" edge="1" parent="1" source="TsiZo-4wIMA7TWHVv7ca-4" target="TsiZo-4wIMA7TWHVv7ca-12">
          <mxGeometry relative="1" as="geometry">
            <mxPoint x="150" y="720" as="targetPoint" />
          </mxGeometry>
        </mxCell>
        <mxCell id="TsiZo-4wIMA7TWHVv7ca-15" style="edgeStyle=orthogonalEdgeStyle;rounded=0;orthogonalLoop=1;jettySize=auto;html=1;" edge="1" parent="1" source="TsiZo-4wIMA7TWHVv7ca-4" target="TsiZo-4wIMA7TWHVv7ca-5">
          <mxGeometry relative="1" as="geometry" />
        </mxCell>
        <mxCell id="TsiZo-4wIMA7TWHVv7ca-4" value="É divisível por 4?" style="rhombus;whiteSpace=wrap;html=1;" vertex="1" parent="1">
          <mxGeometry x="327" y="250" width="186" height="150" as="geometry" />
        </mxCell>
        <mxCell id="TsiZo-4wIMA7TWHVv7ca-21" style="edgeStyle=orthogonalEdgeStyle;rounded=0;orthogonalLoop=1;jettySize=auto;html=1;" edge="1" parent="1" source="TsiZo-4wIMA7TWHVv7ca-5" target="TsiZo-4wIMA7TWHVv7ca-19">
          <mxGeometry relative="1" as="geometry" />
        </mxCell>
        <mxCell id="TsiZo-4wIMA7TWHVv7ca-27" style="edgeStyle=orthogonalEdgeStyle;rounded=0;orthogonalLoop=1;jettySize=auto;html=1;" edge="1" parent="1" source="TsiZo-4wIMA7TWHVv7ca-5" target="TsiZo-4wIMA7TWHVv7ca-18">
          <mxGeometry relative="1" as="geometry" />
        </mxCell>
        <mxCell id="TsiZo-4wIMA7TWHVv7ca-5" value="É divisível por 100?" style="rhombus;whiteSpace=wrap;html=1;" vertex="1" parent="1">
          <mxGeometry x="327" y="460" width="186" height="150" as="geometry" />
        </mxCell>
        <mxCell id="TsiZo-4wIMA7TWHVv7ca-10" value="Não" style="text;html=1;align=center;verticalAlign=middle;resizable=0;points=[];autosize=1;strokeColor=none;fillColor=none;" vertex="1" parent="1">
          <mxGeometry x="285" y="300" width="50" height="30" as="geometry" />
        </mxCell>
        <mxCell id="TsiZo-4wIMA7TWHVv7ca-13" style="edgeStyle=orthogonalEdgeStyle;rounded=0;orthogonalLoop=1;jettySize=auto;html=1;" edge="1" parent="1" source="TsiZo-4wIMA7TWHVv7ca-12" target="TsiZo-4wIMA7TWHVv7ca-2">
          <mxGeometry relative="1" as="geometry" />
        </mxCell>
        <mxCell id="TsiZo-4wIMA7TWHVv7ca-12" value="O ano não é bissexto" style="shape=display;whiteSpace=wrap;html=1;" vertex="1" parent="1">
          <mxGeometry x="120" y="900" width="80" height="40" as="geometry" />
        </mxCell>
        <mxCell id="TsiZo-4wIMA7TWHVv7ca-14" value="Sim" style="text;html=1;align=center;verticalAlign=middle;resizable=0;points=[];autosize=1;strokeColor=none;fillColor=none;" vertex="1" parent="1">
          <mxGeometry x="380" y="390" width="40" height="30" as="geometry" />
        </mxCell>
        <mxCell id="TsiZo-4wIMA7TWHVv7ca-25" style="edgeStyle=orthogonalEdgeStyle;rounded=0;orthogonalLoop=1;jettySize=auto;html=1;entryX=1;entryY=0.5;entryDx=0;entryDy=0;" edge="1" parent="1" source="TsiZo-4wIMA7TWHVv7ca-18" target="TsiZo-4wIMA7TWHVv7ca-2">
          <mxGeometry relative="1" as="geometry" />
        </mxCell>
        <mxCell id="TsiZo-4wIMA7TWHVv7ca-18" value="O ano é bissexto" style="shape=display;whiteSpace=wrap;html=1;" vertex="1" parent="1">
          <mxGeometry x="650" y="900" width="80" height="40" as="geometry" />
        </mxCell>
        <mxCell id="TsiZo-4wIMA7TWHVv7ca-19" value="É divisível por 400?" style="rhombus;whiteSpace=wrap;html=1;" vertex="1" parent="1">
          <mxGeometry x="327" y="660" width="186" height="150" as="geometry" />
        </mxCell>
        <mxCell id="TsiZo-4wIMA7TWHVv7ca-20" value="Não" style="text;html=1;align=center;verticalAlign=middle;resizable=0;points=[];autosize=1;strokeColor=none;fillColor=none;" vertex="1" parent="1">
          <mxGeometry x="500" y="510" width="50" height="30" as="geometry" />
        </mxCell>
        <mxCell id="TsiZo-4wIMA7TWHVv7ca-22" value="Sim" style="text;html=1;align=center;verticalAlign=middle;resizable=0;points=[];autosize=1;strokeColor=none;fillColor=none;" vertex="1" parent="1">
          <mxGeometry x="414" y="600" width="40" height="30" as="geometry" />
        </mxCell>
        <mxCell id="TsiZo-4wIMA7TWHVv7ca-26" style="edgeStyle=orthogonalEdgeStyle;rounded=0;orthogonalLoop=1;jettySize=auto;html=1;entryX=0;entryY=0;entryDx=40;entryDy=0;entryPerimeter=0;" edge="1" parent="1" source="TsiZo-4wIMA7TWHVv7ca-19" target="TsiZo-4wIMA7TWHVv7ca-18">
          <mxGeometry relative="1" as="geometry" />
        </mxCell>
        <mxCell id="TsiZo-4wIMA7TWHVv7ca-28" style="edgeStyle=orthogonalEdgeStyle;rounded=0;orthogonalLoop=1;jettySize=auto;html=1;entryX=0;entryY=0;entryDx=40;entryDy=0;entryPerimeter=0;" edge="1" parent="1" source="TsiZo-4wIMA7TWHVv7ca-19" target="TsiZo-4wIMA7TWHVv7ca-12">
          <mxGeometry relative="1" as="geometry" />
        </mxCell>
        <mxCell id="TsiZo-4wIMA7TWHVv7ca-29" value="Sim" style="text;html=1;align=center;verticalAlign=middle;resizable=0;points=[];autosize=1;strokeColor=none;fillColor=none;" vertex="1" parent="1">
          <mxGeometry x="510" y="710" width="40" height="30" as="geometry" />
        </mxCell>
        <mxCell id="TsiZo-4wIMA7TWHVv7ca-32" value="Não" style="text;html=1;align=center;verticalAlign=middle;resizable=0;points=[];autosize=1;strokeColor=none;fillColor=none;" vertex="1" parent="1">
          <mxGeometry x="285" y="710" width="50" height="30" as="geometry" />
        </mxCell>
      </root>
    </mxGraphModel>
  </diagram>
</mxfile>
